<?xml version="1.0" standalone="no"?>
<!DOCTYPE svg PUBLIC "-//W3C//DTD SVG 20010904//EN"
 "http://www.w3.org/TR/2001/REC-SVG-20010904/DTD/svg10.dtd">
<svg version="1.0" xmlns="http://www.w3.org/2000/svg"
 width="1024.000000pt" height="1024.000000pt" viewBox="0 0 1024.000000 1024.000000"
 preserveAspectRatio="xMidYMid meet">

<g transform="translate(0.000000,1024.000000) scale(0.100000,-0.100000)"
fill="#000000" stroke="none">
<path d="M6951 6061 c-75 -70 3 -191 97 -152 29 12 62 57 62 85 0 29 -24 68
-51 82 -42 21 -74 17 -108 -15z"/>
<path d="M4670 5644 l0 -425 203 3 202 3 65 31 c82 40 136 87 177 155 101 169
79 388 -53 529 -93 100 -194 130 -436 130 l-158 0 0 -426z m416 264 c94 -49
141 -124 151 -239 11 -129 -49 -244 -154 -295 -51 -26 -71 -29 -170 -33 l-113
-3 0 302 0 302 118 -4 c103 -3 123 -7 168 -30z"/>
<path d="M5693 5816 c-131 -41 -216 -157 -216 -296 0 -100 26 -164 92 -231 73
-73 130 -93 245 -87 125 6 211 61 268 171 30 58 36 177 14 245 -19 56 -78 129
-132 162 -74 46 -189 61 -271 36z m169 -121 c66 -27 118 -109 118 -185 0 -114
-106 -214 -207 -195 -85 16 -136 68 -155 158 -15 69 -1 122 45 174 54 61 127
79 199 48z"/>
<path d="M6414 5814 c-71 -22 -141 -78 -178 -144 -29 -51 -31 -62 -31 -155 0
-115 18 -165 82 -228 58 -59 115 -81 215 -85 76 -3 94 -1 140 21 74 33 119 75
154 144 25 51 29 69 29 143 0 98 -20 152 -80 218 -77 86 -215 121 -331 86z
m176 -124 c103 -53 135 -197 65 -301 -32 -49 -77 -72 -140 -73 -91 -1 -156 56
-176 154 -15 70 0 126 44 177 56 64 134 80 207 43z"/>
<path d="M7495 5818 c-16 -6 -49 -26 -72 -45 l-42 -33 -3 37 -3 38 -62 3 -63
3 0 -303 0 -303 62 1 63 2 5 200 c6 224 10 238 81 274 46 24 89 22 130 -5 58
-39 63 -61 69 -277 l5 -195 63 -1 62 -1 0 192 c0 106 -5 217 -10 246 -13 67
-53 126 -104 153 -46 23 -137 31 -181 14z"/>
<path d="M8097 5816 c-62 -23 -116 -64 -148 -114 -39 -61 -49 -101 -49 -192 0
-126 59 -224 163 -270 92 -41 238 -22 291 39 11 11 22 21 26 21 9 0 -5 -113
-18 -136 -18 -33 -66 -71 -106 -84 -55 -18 -155 -6 -224 25 -30 14 -56 24 -57
23 -2 -2 -13 -23 -25 -47 l-22 -44 23 -19 c38 -29 122 -57 193 -64 129 -13
247 33 308 121 52 73 58 121 58 448 l0 297 -60 0 -60 0 -1 -32 c-1 -18 -1 -36
0 -40 2 -15 -11 -8 -45 22 -61 53 -170 73 -247 46z m179 -125 c23 -10 54 -36
70 -57 26 -34 29 -45 29 -118 0 -94 -20 -133 -85 -166 -63 -32 -150 -20 -203
28 -65 58 -76 187 -24 256 55 71 135 93 213 57z"/>
<path d="M6950 5518 l0 -303 65 0 65 0 0 303 0 302 -65 0 -65 0 0 -302z"/>
<path d="M6360 4505 l0 -435 65 0 65 0 0 140 c0 86 4 140 10 140 5 0 62 -63
126 -140 l116 -140 86 0 86 0 -26 28 c-13 15 -79 91 -146 168 l-122 142 138
137 137 137 -83 -5 -83 -4 -120 -119 -119 -119 0 253 0 252 -65 0 -65 0 0
-435z"/>
<path d="M4620 4863 l0 -63 125 0 125 0 0 -365 0 -365 70 0 70 0 0 368 0 367
122 0 123 0 0 59 0 59 -317 2 -318 1 0 -63z"/>
<path d="M5303 4650 c-93 -47 -95 -51 -38 -138 1 -1 23 10 49 24 34 19 68 28
117 32 68 5 69 4 104 -31 27 -27 35 -43 35 -70 l0 -34 -102 -5 c-112 -5 -165
-22 -212 -66 -86 -81 -69 -226 33 -279 80 -42 213 -25 260 31 20 24 31 19 31
-14 l0 -30 61 0 61 0 -4 228 c-3 215 -4 230 -27 275 -15 30 -39 58 -64 75 -36
24 -52 27 -141 30 -96 3 -104 2 -163 -28z m267 -359 c0 -76 -56 -131 -135
-131 -87 0 -133 66 -89 129 25 35 71 50 152 51 l72 0 0 -49z"/>
<path d="M5935 4661 c-95 -44 -131 -141 -85 -230 24 -48 60 -70 168 -106 93
-30 112 -45 112 -84 0 -47 -32 -66 -109 -66 -53 0 -75 6 -113 27 l-48 26 -24
-41 c-30 -49 -26 -56 48 -95 45 -24 62 -27 146 -27 109 0 141 13 194 78 27 34
31 46 31 102 0 49 -5 70 -21 92 -31 41 -79 71 -154 94 -124 37 -160 79 -109
125 31 28 123 26 173 -4 20 -12 39 -22 41 -22 5 0 45 80 45 91 0 5 -24 21 -52
34 -68 32 -182 34 -243 6z"/>
</g>
</svg>
