<?xml version="1.0" encoding="utf-8"?>
<svg viewBox="0 0 24 24" fill="none" xmlns="http://www.w3.org/2000/svg">
<path fill-rule="evenodd" clip-rule="evenodd" d="M12 8.25C9.93 8.25 8.25 9.93 8.25 12C8.25 14.07 9.93 15.75 12 15.75C14.07 15.75 15.75 14.07 15.75 12C15.75 9.93 14.07 8.25 12 8.25ZM12 14.25C10.76 14.25 9.75 13.24 9.75 12C9.75 10.76 10.76 9.75 12 9.75C13.24 9.75 14.25 10.76 14.25 12C14.25 13.24 13.24 14.25 12 14.25Z" fill="currentColor"/>
<path fill-rule="evenodd" clip-rule="evenodd" d="M21.17 12.86C21.18 12.58 21.18 12.29 21.17 12.01L21.17 11.99C21.18 11.71 21.18 11.42 21.17 11.14L19.85 10.69C19.68 10.08 19.42 9.51 19.09 8.98L19.75 7.72C19.49 7.32 19.19 6.95 18.86 6.61C18.53 6.28 18.16 5.98 17.76 5.72L16.5 6.38C15.97 6.05 15.4 5.79 14.79 5.62L14.34 4.3C14.06 4.29 13.77 4.29 13.49 4.3L13.47 4.3C13.19 4.29 12.9 4.29 12.62 4.3L12.18 5.62C11.57 5.79 11 6.05 10.47 6.38L9.21 5.72C8.81 5.98 8.44 6.28 8.11 6.61C7.78 6.95 7.48 7.32 7.22 7.72L7.88 8.98C7.55 9.51 7.29 10.08 7.12 10.69L5.8 11.14C5.79 11.42 5.79 11.71 5.8 11.99L5.8 12.01C5.79 12.29 5.79 12.58 5.8 12.86L7.12 13.31C7.29 13.92 7.55 14.49 7.88 15.02L7.22 16.28C7.48 16.68 7.78 17.05 8.11 17.39C8.44 17.72 8.81 18.02 9.21 18.28L10.47 17.62C11 17.95 11.57 18.21 12.18 18.38L12.62 19.7C12.9 19.71 13.19 19.71 13.47 19.7L13.49 19.7C13.77 19.71 14.06 19.71 14.34 19.7L14.79 18.38C15.4 18.21 15.97 17.95 16.5 17.62L17.76 18.28C18.16 18.02 18.53 17.72 18.86 17.39C19.19 17.05 19.49 16.68 19.75 16.28L19.09 15.02C19.42 14.49 19.68 13.92 19.85 13.31L21.17 12.86ZM18.02 12.86L17.28 12.62C17.12 13.41 16.83 14.14 16.43 14.79L16.81 15.47C16.65 15.63 16.48 15.78 16.29 15.91L15.61 15.53C14.96 15.93 14.23 16.22 13.44 16.38L13.2 17.12C13.01 17.13 12.8 17.13 12.6 17.12L12.36 16.38C11.57 16.22 10.84 15.93 10.19 15.53L9.51 15.91C9.32 15.78 9.15 15.63 8.99 15.47L9.37 14.79C8.97 14.14 8.68 13.41 8.52 12.62L7.78 12.86C7.77 12.67 7.77 12.46 7.78 12.26L8.52 12.02C8.68 11.23 8.97 10.5 9.37 9.85L8.99 9.17C9.15 9.01 9.32 8.86 9.51 8.73L10.19 9.11C10.84 8.71 11.57 8.42 12.36 8.26L12.6 7.52C12.8 7.51 13.01 7.51 13.2 7.52L13.44 8.26C14.23 8.42 14.96 8.71 15.61 9.11L16.29 8.73C16.48 8.86 16.65 9.01 16.81 9.17L16.43 9.85C16.83 10.5 17.12 11.23 17.28 12.02L18.02 12.26C18.03 12.46 18.03 12.67 18.02 12.86Z" fill="currentColor"/>
</svg>
